<svg width="512" height="512" viewBox="0 0 512 512" fill="none" xmlns="http://www.w3.org/2000/svg">
<path d="M180.238 264.437H191.149L175.04 228.41H164.746L148.585 264.437H159.393L161.761 258.518H177.87L180.238 264.437ZM174.422 249.975H165.209L169.841 238.497L174.422 249.975ZM221 231.961C217.14 228.924 212.92 227.689 207.515 227.689C199.898 227.689 192.435 230.983 192.435 238.6C192.435 247.556 199.229 249.563 207.104 250.284C211.067 250.644 213.125 251.776 213.125 253.577C213.125 255.585 210.809 256.769 207.464 256.769C204.427 256.769 200.464 256.151 196.913 252.703L191.303 259.136C196.295 264.386 200.928 265.518 207.413 265.467C215.493 265.415 223.213 261.915 223.213 253.732C223.213 245.446 215.75 242.563 208.596 241.791C205.045 241.431 202.626 241.071 202.626 238.6C202.626 236.696 205.045 235.924 207.515 235.924C210.655 235.924 213.486 236.542 215.956 238.394L221 231.961ZM228.052 228.41V264.437H255.485V255.791H238.243V228.41H228.052ZM276.582 264.437H286.722V236.799H297.273V228.41H266.083V236.799H276.582V264.437ZM335.037 263.82L325.67 251.673C331.743 248.997 333.287 245.24 333.287 240.813C333.287 234.328 328.5 228.41 319.288 228.41H301.686V264.437H311.876V252.754H315.428L323.817 264.437H335.037V263.82ZM319.288 236.542C321.964 236.542 323.251 238.755 323.251 241.019C323.251 243.181 322.067 245.188 319.391 245.188H311.876V236.542H319.288ZM366.86 264.437H377.771L361.662 228.41H351.368L335.207 264.437H346.015L348.383 258.518H364.492L366.86 264.437ZM361.044 249.975H351.831L356.463 238.497L361.044 249.975ZM389.293 228.41H380.647V264.437H390.94V252.908L390.786 245.034L405.815 264.437H414.461V228.41H404.219V240.762C404.271 242.152 404.271 243.799 404.528 248.122L389.293 228.41ZM448.988 231.961C445.128 228.924 440.907 227.689 435.503 227.689C427.886 227.689 420.423 230.983 420.423 238.6C420.423 247.556 427.217 249.563 435.091 250.284C439.054 250.644 441.113 251.776 441.113 253.577C441.113 255.585 438.797 256.769 435.452 256.769C432.415 256.769 428.452 256.151 424.901 252.703L419.291 259.136C424.283 264.386 428.915 265.518 435.4 265.467C443.481 265.415 451.201 261.915 451.201 253.732C451.201 245.446 443.738 242.563 436.584 241.791C433.033 241.431 430.614 241.071 430.614 238.6C430.614 236.696 433.033 235.924 435.503 235.924C438.643 235.924 441.473 236.542 443.944 238.394L448.988 231.961Z" fill="white"/>
<path d="M151.6 272.954H150.516V281.675H156.346V280.666H151.6V272.954ZM161.314 272.804C158.56 272.804 156.866 274.81 156.866 277.339C156.866 279.632 158.311 281.849 161.301 281.849C164.291 281.849 165.712 279.619 165.724 277.339C165.737 275.035 164.267 272.817 161.314 272.804ZM164.64 277.339C164.64 279.059 163.606 280.828 161.314 280.828C159.021 280.828 157.95 279.109 157.95 277.339C157.95 275.433 159.096 273.801 161.314 273.801C163.594 273.826 164.653 275.57 164.64 277.339ZM174.702 274.088C173.817 273.216 172.659 272.779 171.5 272.779C168.659 272.779 166.953 274.785 166.965 277.389C166.965 279.731 168.41 281.837 171.512 281.837C172.92 281.837 174.004 281.301 174.889 280.354V276.903H171.189V277.863H173.905V279.931C173.182 280.554 172.347 280.815 171.525 280.815C169.158 280.815 168.036 279.158 168.036 277.389C168.036 275.471 169.257 273.789 171.5 273.789C172.385 273.789 173.394 274.15 174.079 274.81L174.702 274.088ZM176.772 281.675H177.855V272.954H176.772V281.675ZM185.648 274.86L186.47 274.349C185.697 273.029 184.464 272.767 183.168 272.767C181.661 272.767 179.804 273.39 179.829 275.209C179.829 276.978 181.461 277.364 183.143 277.626C184.452 277.825 185.673 278.137 185.66 279.221C185.66 280.504 184.252 280.84 183.193 280.84C182.122 280.84 180.951 280.342 180.39 279.308L179.493 279.831C180.166 281.289 181.636 281.849 183.181 281.849C184.85 281.849 186.719 281.214 186.732 279.258C186.732 277.29 185.012 276.941 183.268 276.667C181.985 276.455 180.901 276.181 180.901 275.234C180.901 274.175 182.084 273.739 183.193 273.739C184.165 273.751 185.174 274.1 185.648 274.86ZM190.482 273.926V281.675H191.554V273.926H194.532V272.954H187.505V273.926H190.482ZM195.898 281.675H196.982V272.954H195.898V281.675ZM206.555 280.516L205.795 279.769C205.135 280.429 204.201 280.778 203.316 280.778C200.961 280.778 199.878 279.121 199.853 277.352C199.84 275.545 200.974 273.851 203.316 273.851C204.201 273.851 205.085 274.162 205.758 274.823L206.506 274.125C205.621 273.253 204.475 272.817 203.316 272.817C200.251 272.817 198.744 275.059 198.769 277.364C198.781 279.682 200.239 281.812 203.316 281.812C204.512 281.812 205.671 281.388 206.555 280.516ZM213.546 274.86L214.368 274.349C213.596 273.029 212.362 272.767 211.067 272.767C209.559 272.767 207.703 273.39 207.728 275.209C207.728 276.978 209.36 277.364 211.042 277.626C212.35 277.825 213.571 278.137 213.559 279.221C213.559 280.504 212.151 280.84 211.092 280.84C210.02 280.84 208.849 280.342 208.288 279.308L207.391 279.831C208.064 281.289 209.534 281.849 211.079 281.849C212.749 281.849 214.618 281.214 214.63 279.258C214.63 277.29 212.911 276.941 211.166 276.667C209.883 276.455 208.799 276.181 208.799 275.234C208.799 274.175 209.983 273.739 211.092 273.739C212.063 273.751 213.073 274.1 213.546 274.86Z" fill="white" fill-opacity="0.6"/>
<g clip-path="url(#clip0_25_108)">
<path d="M135.698 269.471V284.056H118.189V275.121H87.8208L82.2524 284.056H62.7344V284.056C66.4439 278.126 71.2474 272.825 77.5165 269.723C82.9901 267.015 88.879 264.933 94.8818 263.879C98.6706 263.188 102.632 262.842 106.65 262.842C110.611 262.842 114.515 263.188 118.246 263.822C124.331 264.975 130.244 266.877 135.698 269.471Z" fill="white"/>
<path d="M117.729 227.447C115.892 231.078 113.711 234.479 111.3 237.708C105.789 244.971 98.9002 251.024 90.9782 255.578C86.5005 258.115 81.7358 260.19 76.7415 261.689L82.6543 252.292L98.2113 227.447H117.729Z" fill="white"/>
<path d="M135.697 227.447V254.31C130.186 256.443 124.331 257.826 118.246 258.461C116.064 258.691 113.826 258.806 111.587 258.806C107.511 258.806 103.492 258.461 99.5889 257.769C106.592 253.964 112.907 249.007 118.188 243.127C122.436 238.457 125.996 233.211 128.809 227.447H135.697Z" fill="#FDCE06"/>
</g>
<defs>
<clipPath id="clip0_25_108">
<rect width="72.9631" height="56.6093" fill="white" transform="translate(62.7344 227.447)"/>
</clipPath>
</defs>
</svg>
