<svg width="512" height="512" viewBox="0 0 512 512" fill="none" xmlns="http://www.w3.org/2000/svg">
<path d="M177.62 265.808H188.797L172.296 228.905H161.752L145.198 265.808H156.269L158.694 259.746H175.195L177.62 265.808ZM171.663 250.994H162.227L166.971 239.238L171.663 250.994ZM219.373 232.543C215.419 229.433 211.096 228.167 205.561 228.167C197.758 228.167 190.114 231.541 190.114 239.344C190.114 248.517 197.073 250.573 205.139 251.311C209.198 251.68 211.307 252.84 211.307 254.685C211.307 256.741 208.935 257.953 205.508 257.953C202.398 257.953 198.338 257.321 194.701 253.789L188.954 260.378C194.068 265.756 198.813 266.915 205.455 266.863C213.732 266.81 221.64 263.225 221.64 254.843C221.64 246.355 213.996 243.403 206.668 242.612C203.03 242.243 200.552 241.874 200.552 239.344C200.552 237.393 203.03 236.602 205.561 236.602C208.776 236.602 211.676 237.235 214.206 239.133L219.373 232.543ZM226.596 228.905V265.808H254.695V256.952H237.034V228.905H226.596ZM276.305 265.808H286.691V237.499H297.498V228.905H265.551V237.499H276.305V265.808ZM336.18 265.176L326.585 252.734C332.806 249.993 334.388 246.144 334.388 241.611C334.388 234.968 329.485 228.905 320.048 228.905H302.018V265.808H312.457V253.841H316.094L324.687 265.808H336.18V265.176ZM320.048 237.235C322.79 237.235 324.107 239.502 324.107 241.821C324.107 244.036 322.895 246.092 320.154 246.092H312.457V237.235H320.048ZM368.776 265.808H379.952L363.451 228.905H352.908L336.354 265.808H347.425L349.85 259.746H366.351L368.776 265.808ZM362.819 250.994H353.382L358.127 239.238L362.819 250.994ZM391.755 228.905H382.898V265.808H393.442V253.999L393.284 245.934L408.677 265.808H417.534V228.905H407.043V241.558C407.096 242.981 407.096 244.668 407.359 249.097L391.755 228.905ZM452.899 232.543C448.945 229.433 444.622 228.167 439.087 228.167C431.284 228.167 423.64 231.541 423.64 239.344C423.64 248.517 430.599 250.573 438.665 251.311C442.724 251.68 444.833 252.84 444.833 254.685C444.833 256.741 442.461 257.953 439.034 257.953C435.924 257.953 431.864 257.321 428.227 253.789L422.48 260.378C427.594 265.756 432.339 266.915 438.981 266.863C447.258 266.81 455.166 263.225 455.166 254.843C455.166 246.355 447.522 243.403 440.194 242.612C436.556 242.243 434.079 241.874 434.079 239.344C434.079 237.393 436.556 236.602 439.087 236.602C442.303 236.602 445.202 237.235 447.733 239.133L452.899 232.543Z" fill="#1051A5"/>
<path d="M148.251 273.324H147.158V282.121H153.039V281.103H148.251V273.324ZM158.05 273.173C155.273 273.173 153.564 275.196 153.564 277.748C153.564 280.06 155.021 282.297 158.037 282.297C161.053 282.297 162.486 280.047 162.499 277.748C162.511 275.423 161.028 273.186 158.05 273.173ZM161.405 277.748C161.405 279.482 160.362 281.266 158.05 281.266C155.738 281.266 154.657 279.532 154.657 277.748C154.657 275.825 155.813 274.178 158.05 274.178C160.35 274.204 161.418 275.963 161.405 277.748ZM171.554 274.468C170.662 273.588 169.493 273.148 168.325 273.148C165.459 273.148 163.738 275.171 163.75 277.798C163.75 280.16 165.208 282.284 168.337 282.284C169.757 282.284 170.851 281.744 171.743 280.789V277.308H168.01V278.275H170.75V280.361C170.021 280.99 169.179 281.254 168.35 281.254C165.962 281.254 164.831 279.582 164.831 277.798C164.831 275.862 166.063 274.166 168.325 274.166C169.217 274.166 170.235 274.53 170.926 275.196L171.554 274.468ZM173.642 282.121H174.735V273.324H173.642V282.121ZM182.595 275.247L183.425 274.731C182.645 273.399 181.401 273.135 180.094 273.135C178.574 273.135 176.701 273.764 176.726 275.599C176.726 277.383 178.373 277.773 180.069 278.037C181.389 278.238 182.62 278.552 182.608 279.645C182.608 280.94 181.188 281.279 180.119 281.279C179.039 281.279 177.857 280.776 177.292 279.733L176.387 280.261C177.066 281.731 178.549 282.297 180.107 282.297C181.791 282.297 183.676 281.656 183.689 279.683C183.689 277.697 181.954 277.345 180.195 277.069C178.9 276.855 177.807 276.579 177.807 275.624C177.807 274.556 179.001 274.116 180.119 274.116C181.1 274.128 182.118 274.48 182.595 275.247ZM187.472 274.304V282.121H188.553V274.304H191.556V273.324H184.468V274.304H187.472ZM192.934 282.121H194.028V273.324H192.934V282.121ZM203.685 280.952L202.918 280.198C202.252 280.864 201.309 281.216 200.417 281.216C198.042 281.216 196.949 279.545 196.924 277.76C196.911 275.938 198.055 274.229 200.417 274.229C201.309 274.229 202.202 274.543 202.88 275.209L203.634 274.505C202.742 273.626 201.586 273.186 200.417 273.186C197.326 273.186 195.805 275.448 195.83 277.773C195.843 280.11 197.313 282.259 200.417 282.259C201.624 282.259 202.792 281.832 203.685 280.952ZM210.736 275.247L211.565 274.731C210.786 273.399 209.542 273.135 208.235 273.135C206.715 273.135 204.842 273.764 204.867 275.599C204.867 277.383 206.513 277.773 208.21 278.037C209.53 278.238 210.761 278.552 210.749 279.645C210.749 280.94 209.328 281.279 208.26 281.279C207.18 281.279 205.998 280.776 205.433 279.733L204.528 280.261C205.206 281.731 206.689 282.297 208.248 282.297C209.932 282.297 211.817 281.656 211.829 279.683C211.829 277.697 210.095 277.345 208.336 277.069C207.041 276.855 205.948 276.579 205.948 275.624C205.948 274.556 207.142 274.116 208.26 274.116C209.241 274.128 210.258 274.48 210.736 275.247Z" fill="#101920"/>
<g clip-path="url(#clip0_25_97)">
<path d="M133.346 270.635V286.192H114.479V276.661H81.755L75.7546 286.192H54.7222V286.192C58.7195 279.867 63.8854 274.223 70.6028 270.927C76.5148 268.027 82.8776 265.796 89.3638 264.67C93.4465 263.932 97.7149 263.563 102.045 263.563C106.313 263.563 110.52 263.932 114.541 264.609C121.098 265.838 127.47 267.868 133.346 270.635Z" fill="#1051A5"/>
<path d="M113.984 225.808C112.005 229.682 109.654 233.31 107.056 236.754C101.118 244.501 93.6944 250.958 85.1577 255.816C80.3326 258.521 75.1982 260.735 69.8164 262.333L76.188 252.311L92.9521 225.808H113.984Z" fill="#1051A5"/>
<path d="M133.346 225.808V254.463C127.408 256.738 121.098 258.214 114.541 258.89C112.19 259.136 109.778 259.259 107.365 259.259C102.973 259.259 98.643 258.89 94.4365 258.152C101.983 254.094 108.788 248.806 114.479 242.534C119.057 237.553 122.892 231.957 125.923 225.808H133.346Z" fill="#FECE08"/>
</g>
<defs>
<clipPath id="clip0_25_97">
<rect width="78.6241" height="60.3833" fill="white" transform="translate(54.7222 225.808)"/>
</clipPath>
</defs>
</svg>
